<?xml version="1.0" encoding="UTF-8"?>
<svg version="1.1" viewBox="0 0 2048 2048" width="512" height="512" xmlns="http://www.w3.org/2000/svg">
<path transform="translate(1325,293)" d="m0 0h4l4 11 7 26 8 39 4 26 3 27 1 17v54l-2 24-4 26-5 21-7 22-8 20-10 19-9 14-8 11-11 13-12 13-15 15-10 8-13 10-14 10-18 11-23 12-28 11-38 14-27 12-19 11-12 9-14 12-8 8-9 11-11 15-9 16-7 14-8 21-7 25-4 23-2 19-1 20v17l2 28 5 31 7 27 3 9v3l-9-1-16-3-6-3-8-25-8-32-5-26-3-29v-28l3-34 5-29 9-35 11-32 12-30 11-25 16-32 13-25 13-23 15-26 6-9 11-18 10-15 11-16 14-19 22-28 11-13 9-11 9-10 9-11 8-8 7-8 18-18 8-6 3-5-10 6-15 10-20 14-21 16-13 11-14 12-32 32-7 8-12 13-9 11-9 10-7 9-12 15-13 18-9 12-12 18-6 10-1 2h-3l-12-22-12-26-8-22-7-25-5-30v-32l2-16 5-21 6-16 7-14 12-17 9-10 14-14 14-11 11-8 15-10 15-9 28-16 24-12 27-12 25-10 42-15 35-11 41-10 35-7z" fill="#48973C"/>
<path transform="translate(696,518)" d="m0 0 26 5 24 7 24 9 20 9 24 13 19 13 14 11 13 12 15 15 9 11 11 14 10 15 12 23 7 19 4 16 4 27v58h-3l-9-11-8-10-11-13-9-10-7-8-41-41-8-7-7-7-8-7-14-12-16-15-9-8-5-2 6 8 12 14 12 16 14 19 16 23 15 23 16 26 14 25 17 34 5 12 8 19 4 10v3l-9-1-20-5-30-10-24-11-24-13-21-14-14-11-10-9-7-6-7-8-10-11-12-16-9-15-8-17-7-21-6-26-5-30-2-22-2-31v-18l3-44 2-17z" fill="#49983D"/>
<path transform="translate(1344,664)" d="m0 0h3l5 25 7 38 4 32 1 15v26l-2 23-4 25-7 28-8 24-9 21-5-2-18-11-43-30-19-14-10-5-7 2-33 22-16 11-24 16-23 16-11 7-38 26-14 10-19 13-17 12-11 8-2-2v-20l3-18 2-16 7-27 8-23 9-19 9-14 8-11 15-15 9-8 15-10 14-8 22-11 40-16 27-12 19-10 20-12 12-8 8-6 13-10 7-7 11-9 17-17 7-8 9-10z" fill="#0084AC"/>
<path transform="translate(719,806)" d="m0 0 4 2 11 9 10 9 14 11 15 12 13 9 31 19 16 8 23 11 32 12 13 4 6 2 1 2v70l1 18 5 29 6 24 6 17 2 5v3l-5-1-27-12-21-11-16-10-16-12-11-9-15-14-15-15-18-22-12-18-14-25-10-21-10-26-7-21-7-25-4-18z" fill="#0084AC"/>
<path transform="translate(831,1220)" d="m0 0h44l13 3 17 8 14 10 8 8 11 15 7 15 5 17 2 12v19l-2 10-3 12-7 16-8 13-9 10-8 7-12 8-11 5-13 4-15 3h-21l-25-5-17-8-14-10-7-6-10-13-8-14-6-16-3-17v-21l4-18 6-15 6-11 11-13 8-8 13-9 12-6 12-4zm17 30-15 2-14 7-10 9-6 7-6 10-5 13-2 18 2 18 5 13 6 10 10 11 10 7 11 5 12 2h16l15-4 14-7 11-10 8-14 4-13 2-9v-17l-5-17-7-13-8-10-11-9-12-6-7-2z" fill="#002B2F"/>
<path transform="translate(1265,1221)" d="m0 0h56l26 3 18 5 15 8 11 8 10 10 9 14 6 14 3 12 1 7v30l-2 10-4 13-8 16-11 13-13 11-14 7-16 5-21 3h-70l-1-1v-186zm29 30-1 1v127l1 1h21l22-2 12-3 12-6 10-9 8-13 5-16v-24l-5-17-7-13-11-11-10-6-11-4-24-4z" fill="#002B2F"/>
<path transform="translate(1015,1221)" d="m0 0h43l21 2 12 3 13 7 11 10 7 11 5 13 1 7v17l-4 13-6 11-9 10-14 8-10 4 7 11 14 19 24 32 6 9v2h-40l-6-8-36-54-5-7-3-1h-22v70l-3 1-31-1-1-2 1-186zm9 31-1 52 1 8h45l9-3 8-6 6-7 4-9v-8l-7-14-7-7-12-5-3-1z" fill="#002B2F"/>
<path transform="translate(1126,968)" d="m0 0 5 1 16 13 14 11 11 9 15 12 19 14 11 10 7 6-2 4-10 7-25 13-26 11-27 9-29 7-22 4-17 1h-29l-3-6-6-36v-21l8-8 19-14 17-12 15-10 19-13 16-10z" fill="#0084AC"/>
<path transform="translate(1512,1221)" d="m0 0h34l3 3 11 27 11 28 15 37 16 39 17 40 5 12v4h-38l-6-14-10-28-80-1-3 3-8 20-6 16-2 3h-35l1-7 11-26 15-37 13-32 18-46 11-28 5-12zm17 37-4 9-23 62-3 8v3h61l-2-5-9-24-10-29-7-19-2-5z" fill="#002B2F"/>
<path transform="translate(1325,293)" d="m0 0h4l4 11 7 26 8 39 4 26 3 27 1 17v54l-2 24-4 26-5 21-7 22-8 20-10 19-9 14-8 11-11 13-12 13-15 15-10 8-13 10-14 10-18 11-23 12-28 11-38 14-27 12-19 11-12 9-14 12-8 8-9 11-11 15-9 16-7 14-8 21-7 25-4 23-2 19-1 20v17l2 28 5 31 7 27 3 9v3l-9-1-16-3-6-3-8-25-8-32-5-26-3-29v-28l3-34 5-29 9-35 11-32 12-30 11-25 16-32 13-25 13-23 15-26 6-9 11-18 10-15 11-16 14-19 22-28 11-13 9-11 9-10 9-11 8-8 7-8 18-18 5-4h3l-2 4-10 10-6 5-7 8-3 5-2 1-1 3-5 5h-2l-2 4-10 11-14 18h-2l-2 4-13 16-7 10h-2l-2 5-11 14-11 15-7 10-4 7-15 23-8 14-8 13-25 45-11 23-15 30-8 18-11 27-12 36-7 24-3 17-2 10-3 20-1 12v42l1 18 6 36 9 36 5 13 3 4 11 2 4 2-2-11-2-5-2-11-3-13-5-40v-40l5-41 6-26 7-24 14-29 14-21 12-14 20-20 12-9 17-11 23-11 26-10 23-8 28-11 19-9 4-3 6-3 5-3 6-4 13-9 8-6 7-5 5-5 8-7 12-12 7-8 9-10 9-12 7-10 10-18 10-21 9-24 5-21 4-20 5-41v-45l-3-25-3-26-5-30-13-52-2-9-25 4-40 9-27 7-31 9-36 13-29 11-26 11-19 9-19 10-25 14-18 11-16 11-11 9-14 12-9 9-4 6-8 11-6 11-6 13-6 18-4 18-2 20v11l3 27 5 22 9 27 7 17 15 30v2h4l2-5 6-10 12-17 10-13 8-11 8-10 9-11 9-10 8-10 14-15 11-12 29-29 11-9 9-8 13-10 12-9 12-8 5 1-5 5-19 14-14 11-15 13-12 11-27 27-7 8-12 13-9 11-9 10-7 9-12 15-13 18-9 12-12 18-6 10-1 2h-3l-12-22-12-26-8-22-7-25-5-30v-32l2-16 5-21 6-16 7-14 12-17 9-10 14-14 14-11 11-8 15-10 15-9 28-16 24-12 27-12 25-10 42-15 35-11 41-10 35-7z" fill="#0B6912"/>
<path transform="translate(1237,896)" d="m0 0h10l10 6 22 15 17 12 11 8 13 10-2 5-8 12-10 14-11 14-14 15-10 9-11 8-7-3-14-10-21-16-28-21-18-14-11-9v-2l14-10 14-9 19-12 19-13 13-8z" fill="#0084AC"/>
<path transform="translate(461,1222)" d="m0 0h82l37 1v28l-1 1h-87l1 6-1 49h76l1 3v25l-76 1v74l-1 1h-32l-1-1v-76l1-111z" fill="#002B2F"/>
<path transform="translate(617,1222)" d="m0 0h33l2 1v157h80v31h-115l-1-187z" fill="#002B2F"/>
<path transform="translate(1173,1222)" d="m0 0h34l1 1v188h-35l-1-2v-186z" fill="#002B2F"/>
<path transform="translate(696,518)" d="m0 0 26 5 24 7 24 9 20 9 24 13 19 13 14 11 13 12 15 15 9 11 11 14 10 15 12 23 7 19 4 16 4 27v58h-3l-9-11-8-10-11-13-9-10-7-8-41-41-8-7-7-7-8-7-14-12-16-15-7-6v-2l6 2 10 8 7 5 15 15 4 2 3 3 7 6v2l5 2 4 5 8 7 48 48 7 8 6 7 8 10 5 3 1-34-3-16-2-15-5-20-4-11-5-12-11-20-7-10-10-13-12-14-13-14-8-7-10-9-10-7-15-10-18-10-23-11-23-9-19-6-17-5-14-3-1 22-2 24v57l4 35 6 28 4 15 6 21 5 12 11 19 9 13 2 4 3 1 1 4h2l7 8 4 4v2l4 2 15 14 15 11 24 15 12 7 21 10 24 9 24 7 8 1-12-28-6-15-9-17-3-7-8-15-6-9-4-7v-3h-2l-7-13-7-10-4-8-10-14-12-17-13-18-4-6v-2h-2l-4-6-9-12v-2h-2l-5-7 1-4 7 7 11 14 10 13 14 19 16 23 15 23 16 26 14 25 17 34 5 12 8 19 4 10v3l-9-1-20-5-30-10-24-11-24-13-21-14-14-11-10-9-7-6-7-8-10-11-12-16-9-15-8-17-7-21-6-26-5-30-2-22-2-31v-18l3-44 2-17z" fill="#0A6811"/>
<path transform="translate(1072,1492)" d="m0 0h19l12 22 15 29 4 4 2-6 9-16 10-18 8-13 2-2h17v95h-18l-1-63-12 22-13 23-3 3h-6l-5-6-15-28-8-14h-1v63l-9 1-7-1z" fill="#000404"/>
<path transform="translate(956,1492)" d="m0 0h19l5 6 7 11 26 39 5 5-1-61h18l1 1v94h-16l-7-10-9-14-14-21-13-19-3-2 1 2v64h-19z" fill="#000506"/>
<path transform="translate(475,1492)" d="m0 0h16l5 5 20 30 11 15 8 12 1-61 1-1h16l1 9v81l-1 5-6 1h-7l-4-4-10-15-16-23-14-21-3-5-1 2v65h-17z" fill="#010505"/>
<path transform="translate(874,1490)" d="m0 0h14l12 3 11 7 8 8 6 12 3 11v17l-2 9-6 11-9 10-10 6-8 3-7 1h-9l-14-3-9-5-10-9-8-13-4-13v-13l4-13 6-11 9-9 14-7zm-3 17-10 5-5 6-4 10-1 16 3 10 6 9 9 6 5 2h12l10-4 6-5 6-10 2-8v-12l-3-10-6-8-6-5-6-2z" fill="#010605"/>
<path transform="translate(761,1490)" d="m0 0h16l14 2 8 6 5 6 3 6 1 4v14l-4 10-9 9-4 1 5 9 10 16 6 10v4h-19l-7-11-14-23-3-3h-8l-1 37-1 1h-12l-5-1-1-94 1-1zm0 14-1 1v27l1 1h21l5-3 3-8-2-9-5-5-6-3z" fill="#010605"/>
<path transform="translate(1296,1492)" d="m0 0h16l9 11 13 19 13 18 8 13v2l3 1v-64h15l1 1v94l-4 1h-8l-5-5-13-18-14-20-10-15-7-10-1 67-2 1-14-1z" fill="#010605"/>
<path transform="translate(1015,1221)" d="m0 0h43l21 2 12 3 13 7 11 10 7 11 5 13 1 7v17l-4 13-6 11-9 10-14 8-10 4 7 11 14 19 24 32 6 9v2h-40l-6-8-36-54-5-7-3-1h-22v70l-3 1-31-1-1-2 1-186zm7 6-26 1v176h23l1-2v-60l4-5 3-1h21l6 4 5 6 12 18 21 32 5 8h29l-3-5-9-12-13-18-6-8-8-12-7-12v-2l19-10 10-8 9-13 4-13v-19l-3-12-6-11-10-10-9-6-14-5-13-1z" fill="#010807"/>
<path transform="translate(862,1656)" d="m0 0h41l13 5 7 8 3 8v12l-3 9-8 9-6 3h-2l22 33 3 4v3l-17-1-5-5-17-28-2-3-13-1 1 35-2 2h-16v-92zm15 16v26h22l8-3 4-6v-6l-5-8-4-3z" fill="#010909"/>
<path transform="translate(381,1492)" d="m0 0h63v15l-1 1h-44v20h37v15l-36 1-1 24h45v19h-62z" fill="#010706"/>
<path transform="translate(1204,1492)" d="m0 0h60v15l-1 1h-43v20h36l1 1-1 14-1 1h-35v24h46l1 1v17l-1 1h-62l-1-8v-86z" fill="#020805"/>
<path transform="translate(617,1222)" d="m0 0h33l2 1v157h80v31h-115l-1-187zm7 6v176h103l1-1v-9l-1-9-46-1h-18l-11-1-4-3-1-5-1-44-1-103z" fill="#000505"/>
<path transform="translate(1512,1221)" d="m0 0h34l3 3 11 27 11 28 15 37 16 39 17 40 5 12v4h-38l-6-14-10-28-80-1-3 3-8 20-6 16-2 3h-35l1-7 11-26 15-37 13-32 18-46 11-28 5-12zm2 7-6 13-10 26-13 33-11 28-10 23-10 25-8 19-3 8 1 1h24l3-7 10-26 5-8h84l3-1 1 5 10 26 4 11h28l-3-9-12-28-11-27-5-12-14-34-5-13-16-40-5-12-1-1z" fill="#010805"/>
<path transform="translate(461,1222)" d="m0 0h82l37 1v28l-1 1h-87l1 6-1 49h76l1 3v20l-1 4-23-1h-52l-3-3 3-2h71l-1-15-71-1-4-2v-59l1-3 65-1h21v-19h-110v176l22 1v-69l1-2h5v76l-1 1h-32l-1-1v-76l1-111z" fill="#020906"/>
<path transform="translate(1522,1492)" d="m0 0h17l3 5 13 34 18 46 3 10-1 1h-17l-2-2-6-18v-2h-40l-5 11-4 10h-15l1-5 11-30 15-39 8-20zm7 23-8 21-6 14 2 2h27l-1-7-8-21-4-9z" fill="#010705"/>
<path transform="translate(764,1656)" d="m0 0h58l1 1v17l-1 1h-41l-1 19h35l1 1v14h-36v24h44v16h-59l-1-1z" fill="#000403"/>
<path transform="translate(1232,1656)" d="m0 0h56l1 1v17l-1 1h-40v19h35l1 1v16h-35l-1 23 43-1 1 1v14l-1 1h-58l-1-1z" fill="#030A06"/>
<path transform="translate(831,1220)" d="m0 0h44l13 3 17 8 14 10 8 8 11 15 7 15 5 17 2 12v19l-2 10-3 12-7 16-8 13-9 10-8 7-12 8-11 5-13 4-15 3h-21l-25-5-17-8-14-10-7-6-10-13-8-14-6-16-3-17v-21l4-18 6-15 6-11 11-13 8-8 13-9 12-6 12-4zm13 4-17 3-16 5-11 6-13 10-9 10-9 14-5 12-4 14-1 10v15l2 15 5 16 8 16 7 9 10 10 10 7 16 8 18 4h35l14-3 17-7 11-8 10-9 9-11 8-16 5-16 2-12v-17l-4-20-6-16-6-11-6-8-11-11-13-8-10-5-13-4-14-2z" fill="#010706"/>
<path transform="translate(1265,1221)" d="m0 0h56l26 3 18 5 15 8 11 8 10 10 9 14 6 14 3 12 1 7v30l-2 10-4 13-8 16-11 13-13 11-14 7-16 5-21 3h-70l-1-1v-186zm1 7-1 34v142h68l18-2 13-4 14-7 9-7 10-10 8-13 5-12 4-15 1-6v-21l-5-22-6-15-6-10-9-10-13-9-16-8-16-4-6-1z" fill="#010605"/>
<path transform="translate(579,1492)" d="m0 0h19l4 9 12 36 6 19 1 6 3-3 15-42 7-20 3-5h16l-1 6-16 44-14 37-3 8-9 1h-7l-3-2-23-64-10-27z" fill="#000504"/>
<path transform="translate(1152,1656)" d="m0 0h23l10 4 11 7 4 4-2 5-7 8-5-2-10-6-6-2h-13l-9 4-7 6-4 8-1 4v17l6 12 7 6 9 4h13l11-4 5-5 4-2 8 9-2 4-9 8-11 5-4 1h-19l-11-4-9-6-8-9-7-14-2-10v-9l4-14 5-10 9-10 9-6z" fill="#010705"/>
<path transform="translate(687,1656)" d="m0 0h22l10 4 9 6-1 5-5 9-5-1-8-5-7-2h-10l-6 3-2 3v7l6 5 23 8 10 6 7 9 1 3v11l-6 12-8 7-13 5h-15l-14-5-11-7v-5l8-9 4 1 5 5 10 4h13l9-6 2-4-1-5-6-5-18-7-14-7-5-5-3-4-1-5v-10l3-9 6-7 7-4z" fill="#010605"/>
<path transform="translate(1344,1656)" d="m0 0h21l11 4 8 5-1 6-6 9-5-2-9-5-13-1-7 2-4 5 1 7 5 4 11 4 15 5 9 6 6 8 2 5v10l-6 12-7 6-12 5-12 1-10-2-14-7-5-4v-5l6-9h3l3 5 10 5 12 1 10-2 5-6v-6l-4-5-8-4-19-7-10-6-6-7-1-4v-11l3-10 8-8z" fill="#010706"/>
<path transform="translate(953,1656)" d="m0 0h17l3 5 7 19 13 42 1 4 3-1 6-19 12-36 5-13 1-1h15l1 2-13 35-17 48-5 9h-13l-4-5-13-35-6-17-13-35z" fill="#010705"/>
<path transform="translate(1173,1222)" d="m0 0h34l1 1v188h-35l-1-2v-186zm6 6v151l1 26h22l1-2v-175z" fill="#000707"/>
<path transform="translate(1398,1492)" d="m0 0h78v16h-31v79l-4 1-13-1v-79h-29l-1-1z" fill="#000706"/>
<path transform="translate(1604,1492)" d="m0 0h17l1 1v77l39-1 2 1v17l-1 1h-58z" fill="#000505"/>
<path transform="translate(1080,1496)" d="m0 0h6l13 23 7 13 12 22 1 3 9-13 8-14 8-13 10-18 5-3h5l-1 85-3-1-1-7-1-69-2 12-2 33-1 28h-1l-1-53-12 22-13 23-3 3h-6l-5-6-15-28-8-14h-4l-1-1-1 3h2l-1 21-1 33h-6v-83z" fill="#00303A"/>
<path transform="translate(844,1244)" d="m0 0h13l14 3 12 5 9 6 10 9 6 7 7 12 5 16 1 8v11l-1 13-5 15-6 10-9 10-9 8-14 7-16 4h-18l-11-3-9-4-11-7-6-5-11-14-7-14-4-14v-20l4-15 8-16 9-12 9-8 10-6 14-5zm4 6-15 2-14 7-10 9-6 7-6 10-5 13-2 18 2 18 5 13 6 10 10 11 10 7 11 5 12 2h16l15-4 14-7 11-10 8-14 4-13 2-9v-17l-5-17-7-13-8-10-11-9-12-6-7-2z" fill="#010806"/>
<path transform="translate(748,1496)" d="m0 0h36l8 3 6 6 4 9 1 6-3 12-10 14h-2l-1 3h-3l4 8 14 21 2 8h-3l-4-6-7-10-6-11-6-8-4-2v-2h-2v-2l-13-1-2 7h-1v-7h-2l1 3-1 39 5 1v1h-12l1-3zm13 8-1 1v27l1 1h21l5-3 3-8-2-9-5-5-6-3z" fill="#00303B"/>
<path transform="translate(1294,1248)" d="m0 0h32l17 3 12 5 11 7 9 9 8 13 5 13 2 12v17l-3 14-8 16-9 10-7 6-10 6-14 4-8 1h-30l-10-2-3-3v-125l3-5zm0 3-1 1v127l1 1h21l22-2 12-3 12-6 10-9 8-13 5-16v-24l-5-17-7-13-11-11-10-6-11-4-24-4z" fill="#010504"/>
<path transform="translate(768,1662)" d="m0 0h49v5l-39 2v4l-1 2h-1l-1 24 39 1 2-4v13h-36v24h44v10l-53 1-2-1-1-63 1-14z" fill="#00303B"/>
<path transform="translate(869,1661)" d="m0 0h23l15 2 6 4 5 5 2 6v12l-4 8-9 8-5 2 3 7 9 16 6 9 2 2-4 1-5-5-15-26-1-4h-25v35l-3 1-1-20v-60zm8 11v26h22l8-3 4-6v-6l-5-8-4-3z" fill="#002F3B"/>
<path transform="translate(1530,1494)" d="m0 0 5 4 10 22 13 37 5 12 4 11v4h-4l-5-11-4-11v-3l-48 1-8 19-3 1 1-8 7-16 12-31 6-16 7-13zm-1 21-8 21-6 14 2 2h27l-1-7-8-21-4-9z" fill="#002F3B"/>
<path transform="translate(1017,1492)" d="m0 0h18l1 1v94h-16l-7-10-9-14-14-21-13-19-3-2-1 2v-13l2-1 4 6 14 19 7 10 10 15 9 14 4 7 7-2-1-80-5-2 1 41v25l-2 3-5-13z" fill="#000606"/>
<path transform="translate(691,1491)" d="m0 0 17 1v95h-17l-1-8z" fill="#000304"/>
<path transform="translate(1068,1656)" d="m0 0h16l1 1v91l-1 1h-15l-1-1z" fill="#050D07"/>
<path transform="translate(1126,968)" d="m0 0 5 1 16 13 14 11 11 9 15 12 19 14 11 10 7 6-2 4-10 7-25 13-26 11-27 9-29 7-14 2h-13v-2l30-5 31-8 17-6 11-4 16-7 16-8 11-6h2v-2l6-3-1-3-8-7-12-9-11-8v-2l-5-2-5-4v-2l-5-2-3-2v-2l-4-2-8-6v-2l-8-4-5-5-7-5v-2l-10-5-4 4-26 16-11 8-9 6-11 7-8 6h-2v2l-12 8h-2v2l-4 3h-2v2l-5 4 3 26 2 11-1 8-2-1-4-26v-21l8-8 19-14 17-12 15-10 19-13 16-10z" fill="#073C42"/>
<path transform="translate(875,1500)" d="m0 0h13l9 3 8 6 6 7 5 12 1 5v14l-4 10-7 10-11 8-3 1h-21l-10-4-8-7-6-10-2-10v-12l2-9 4-8 9-10 10-5zm-4 7-10 5-5 6-4 10-1 16 3 10 6 9 9 6 5 2h12l10-4 6-5 6-10 2-8v-12l-3-10-6-8-6-5-6-2z" fill="#010605"/>
<path transform="translate(1529,1252)" d="m0 0h3l8 16 18 51 8 23v2l-6 1h-47l-12-2-5-2-2-4 8-24 11-30 8-22 6-8zm0 6-4 9-23 62-3 8v3h61l-2-5-9-24-10-29-7-19-2-5z" fill="#010605"/>
<path transform="translate(1365,1495)" d="m0 0h2l1 4v33l-1 50-5-2-9-13-8-12-8-11-16-23-8-11-2 6v2l2 1-1 59h-1v-58h-4v60h-6l-1-50 1-34 8 1 11 14 16 24 13 19 5 7 7-1 1 3v7l1 1 1-54v-16z" fill="#02333A"/>
<path transform="translate(1033,1656)" d="m0 0 4 1-6 17-11 30-13 37-5 9h-13l-4-5-13-35-6-17-13-35v-1h9l2 8 13 38 12 31 4 9 5-1 6-13 6-17 7-19 9-26 3-10z" fill="#010605"/>
<path transform="translate(964,1496)" d="m0 0h7l19 28 24 36 3 2v-8h3l3 8h1v-66l6 2 1 80-6 3-3-1-9-15-16-24-8-11-15-20h-3l-2-1v15l-2 57-3-1z" fill="#002F3A"/>
<path transform="translate(1209,1496)" d="m0 0 50 1 1 4-1 2-44 1v27h6l4 1 11-1h15l-1 6-1 2-19 1-6-1-1 2-8 2v24l1 2 2 1-1 4 5 1 40 1v3l-3 1h-50l-1-83z" fill="#002F3B"/>
<path transform="translate(872,1496)" d="m0 0h16l10 3 10 6 9 11 4 12 1 6v9l-2 11-7 13-4 5-9 6-12 3-20-1-10-4-7-6-7-11-4-11-1-4 1-16 4-11 5-8 7-6 12-6zm3 4-10 3-8 6-6 7-4 8-2 9v12l2 10 6 10 9 8 9 3h21l8-4 8-7 5-8 4-10v-14l-4-13-6-9-7-6-8-4-4-1z" fill="#002F3B"/>
<path transform="translate(482,1495)" d="m0 0 6 2 11 15 14 21 13 18 11 14 4 4 1-71 1-2h4v84l-2 2-7-6-5-9-8-10-13-19-10-14-8-11-6-9v-2h-2v76l-3 3h-2l-1-20v-32l1-33z" fill="#002F3B"/>
<path transform="translate(1237,896)" d="m0 0h10l10 6 22 15 17 12 11 8 13 10-2 5-5 8-1-3 3-7-7-7-18-13-10-7-27-18-7-5h-9l-10 7-6 3-11 8-7 5-6 1v2l-5 2-1 3-11 6-5 2v2l-9 5-3 3 1 4 16 12v3l4 1 2 5 5 2 8 4 5 5 10 8 8 5v2l6 2 5 4v2l5 1 11 8 5 1 6-4 5-1v-2l6-1-5 5-12 9-7-3-14-10-21-16-28-21-18-14-11-9v-2l14-10 14-9 19-12 19-13 13-8z" fill="#093F45"/>
<path transform="translate(719,806)" d="m0 0 4 2 11 9 10 9 14 11 15 12 13 9 31 19 16 8 23 11 32 12 12 4v3l-11-2-17-6-24-10-10-5-15-7-12-6-19-12-9-6-5-4-10-7-1-3-4-1-6-5-3-1v-2l-4-2-10-8-2-1v-2h-2v-2l-4-2-3-2v-2l-6-1 4 12 3 15 6 23 5 17 5 11 4 11 5 13 1 6-3-4v-2h-2l-9-21-7-20-5-16-6-21-4-18z" fill="#063D43"/>
<path transform="translate(1033,1247)" d="m0 0h15l23 1 10 3 9 7 6 8 3 6 1 5v14l-5 10-8 8-10 6-6 2-7 1h-35l-7-3 4-1h37v-2l13-3 9-6 6-7 4-9v-8l-7-14-8-7-13-5-43-1v49l-1 11h-4v-60l2-4z" fill="#020A06"/>
<path transform="translate(1288,1657)" d="m0 0h1v17l-1 1h-40v19h-1v-19h-3v24l33 1 5 1-1 2-38 1v32l-1 3 47 1v3l-48 1-4-1-1-77 1-5h30l16 1v5l-26 1h-13l1 5 42-1z" fill="#02343A"/>
<path transform="translate(1404,1496)" d="m0 0 67 1 1 5-4 2-25 1-2 3-1 21-1 52-1 6-4-1v-80l-18-2h-12z" fill="#00303C"/>
<path transform="translate(1232,857)" d="m0 0h3l-1 3-16 10-35 24-24 16-23 16-11 7-38 26-14 10-19 13-17 12-11 8-2-2v-19l2 3 2 10h4l4-5 16-11 8-6h3v-2l13-8 16-11 12-9 5-3h3v-2l9-7 5-3 7-4h3l1-3 11-7 10-7 12-8h3l1-3 6-2 1-3 16-10 7-6 11-6 5-4 7-4z" fill="#063C41"/>
<path transform="translate(390,1496)" d="m0 0h16l31 1 1 5-1 1-44 1v27l6 1-1 6 1 2-1 2-4-1-1 2v30l4 2 44 1v3h-53v-71l1-11z" fill="#002F3B"/>
<path transform="translate(1154,1662)" d="m0 0h16l9 2 8 4 5 6v3l-5-2-9-5-5-2h-17l-8 3-6 4-7 8-5 11-1 4v12l3 10 7 10 7 6 7 3 15 1 12-2 8-5 3 1-8 7-9 3h-22l-9-4-8-7-7-9-4-10v-19l5-14 7-9 6-5 8-4z" fill="#002F3B"/>
<path transform="translate(657,1492)" d="m0 0 3 1h-2l-1 7-12 32-6 17-8 21-8 15-4 1-6-17-14-40-11-32v-2l5 2 13 37 11 31 2 5v3h2l1 2 10-22 11-29 7-20 4-8z" fill="#002F3B"/>
<path transform="translate(1088,1509)" d="m0 0 4 5 14 25 9 17 3 8 2 1 2-5 5-7 6-11 15-25 2-3 2 6-2 5-7 14-13 23-6 9-1 1h-6l-5-6-15-28-6-11-2-7-1-3z" fill="#010504"/>
<path transform="translate(1530,1500)" d="m0 0h2l10 25 11 32-42-1-3-2 5-15 12-29zm-1 15-8 21-6 14 2 2h27l-1-7-8-21-4-9z" fill="#000403"/>
<path transform="translate(690,1661)" d="m0 0h12l11 3 8 6v2l-9-3-8-3-9-1-10 3-5 7-1 4v7l3 6 12 6 20 8 8 6 2 4 1 9-4 9-2 4-8 5-4 1h-20l-11-4-5-5 1-3 5 4 8 3 8 1h12l10-5 5-8v-8l-4-6-14-7-18-7-6-4-5-5-1-3v-11l7-9 7-5z" fill="#002F3B"/>
<path transform="translate(758,1500)" d="m0 0h21l9 3 6 7 3 8v7l-4 7-4 4h-7l1 4-6 1-20-2-3-2v-31l2-5zm3 4-1 1v27l1 1h21l5-3 3-8-2-9-5-5-6-3z" fill="#010908"/>
<path transform="translate(782,972)" d="m0 0 5 2 5 8 8 9v2l3 1 7 8 2 4 4 2 7 6 6 7 8 7 11 8 10 6 5 5 8 5 7 3 28 13 7 4 7 2-1-6-3-10-4-14-4-18-2-15v-10h1l3 16 2 5 6 28 8 24 2 5v3l-5-1-27-12-21-11-16-10-16-12-11-9-15-14-15-15-18-22z" fill="#084750"/>
<path transform="translate(953,1656)" d="m0 0h14l-2 2 11 30 9 26 6 15 4 7 3-4 6-13 8-24 6-17 7-18 4-2-1 7-9 24-7 20-5 15-7 17-4 3-4-1-10-24-14-39-6-17v-6h-9z" fill="#002F3B"/>
<path transform="translate(779,1703)" d="m0 0h36v6h-35v24h44v8l-44-1-6-2 1-31 1-3z" fill="#010908"/>
<path transform="translate(875,1667)" d="m0 0h27l8 4 5 6 1 3v11l-7 8-5 4-3 1h-24l-5-1-1-3v-17l1-13zm2 5v26h22l8-3 4-6v-6l-5-8-4-3z" fill="#010705"/>
<path transform="translate(660,1492)" d="m0 0h5l-1 6-16 44-14 37-3 8-9 1h-7v-1l7-2 8-15 13-34 6-18 8-20 1-5z" fill="#020805"/>
<path transform="translate(1365,1495)" d="m0 0h2l1 4v33l-1 50-5-2-9-13-8-12-8-11-16-23-8-11-3-3h7l16 23 12 18 9 13 7-1 1 3v7l1 1 1-54v-16z" fill="#002F3A"/>
<path transform="translate(1080,1496)" d="m0 0h6l2 5h-4v-3h-2v5h2v2h2l2 4 2 11 1 5-3-2-3 1-1-1-1 3h2l-1 21-1 33h-6v-83z" fill="#00303B"/>
<path transform="translate(1612,1496)" d="m0 0 3 1v34l-1 45 42 2 1 3-1 1h-47v-85z" fill="#002F3B"/>
<path transform="translate(1237,896)" d="m0 0h10l10 6 22 15 17 12 11 8 13 10-2 5-5 8-1-3 3-7-7-7-18-13-10-7-27-18-7-5h-9l-10 7-6 3-11 8-7 5-5 1 2-5 21-14 13-8z" fill="#073D42"/>
<path transform="translate(1172,1223)" d="m0 0 3 4v177h-2v5h-1z" fill="#002C31"/>
<path transform="translate(1332,1688)" d="m0 0 9 6 12 5 15 6 8 5 4 5 1 3v10l-3 6-4 5-8 5-8 1-2-2-13 1-9-2-5-4-1-5 11 6 23 1 8-3 5-6 1-9-3-7-7-6-22-8-10-5-4-4z" fill="#002F3B"/>
<path transform="translate(1287,1249)" d="m0 0 3 1-1 4-1 116-2-3-2-6-1-96 2-15z" fill="#002F3B"/>
<path transform="translate(822,1658)" d="m0 0h1v16l-1 1h-41l-1 19h35l1 2-1 5-36-1-4-1v-24l4-2 43-1z" fill="#000507"/>
<path transform="translate(697,1496)" d="m0 0h5v84h-5z" fill="#002F3B"/>
<path transform="translate(1173,789)" d="m0 0h5l-3 3h-4v2l-9 4-11 5-13 5-7 4-7 3-10 6-18 11-3 3h-2v2l-8 7-3 1-1 3-8 7-3-1 17-17 9-8 15-10 14-8 22-11z" fill="#074046"/>
<path transform="translate(1244,858)" d="m0 0 9 5 10 7 9 6 4 3v2l5 2 11 8 5 3 10 7 6 4 7 3 3 2v2l6 1 5 1 2-5 1-6 2-4 4 1-9 21-5-2-18-11-43-30-19-14-7-4z" fill="#0A4246"/>
<path transform="translate(1534,1505)" d="m0 0 5 1 8 20 11 31 5 12 4 11v4h-4l-5-11-4-11-2-6-12-34-6-15z" fill="#002B31"/>
<path transform="translate(1361,1234)" d="m0 0 9 4 11 6 11 9 7 8 8 16 5 15v8l-2 2-6-19 1-4h-2l-6-12-7-9-5-5v-2h-2v-2l-5-2-3-3-9 1-8-4-5-2 2-2 7 1-2-1z" fill="#002F3A"/>
<path transform="translate(1076,1660)" d="m0 0 3 1v82l-3 1-2-1v-45l1-33z" fill="#00303C"/>
<path transform="translate(1284,726)" d="m0 0h2l-2 4-7 7-6 3-5 4h-2l-1 3-5 1v2l-5 3-10 7-6 3h-2v2l-14 8-24 11-5 1-1-2 3-3 20-9 24-13 19-12 22-16z" fill="#053F49"/>
<path transform="translate(588,1495)" d="m0 0 5 2 13 37 11 31 2 5-1 4-2 1-4-9-13-37-11-32z" fill="#002E39"/>
<path transform="translate(869,1225)" d="m0 0 12 2 16 6 10 6-1 4 4 1 1 3-4-2-12-2v4l-5-2-5-5-2 2-7-1-1-4h6l1-3h2v-2h-4v-2h-7l-4-4z" fill="#002F3B"/>
<path transform="translate(1175,1069)" d="m0 0m-3 1 5 1-1 2-26 10-27 8-24 5-8 1h-13v-2l30-5 31-8 17-6 11-4z" fill="#0B6578"/>
<path transform="translate(623,1408)" d="m0 0h88l21 1v2h-113z" fill="#002D33"/>
<path transform="translate(1344,664)" d="m0 0h3l5 25 1 21-2-3-6-27-1-7-8 4-4 5-3 3-3 5h-2v2h-2v2h-2v2h-2v2h-2l-2 4-9 8-1 2h-2l-2 4-7 6-3-1 5-5 15-14 9-9 7-8 9-10z" fill="#06424D"/>
<path transform="translate(617,1222)" d="m0 0h5l-3 1v124l-1 55h-1l-1-178z" fill="#012D2F"/>
<path transform="translate(1546,1236)" d="m0 0h2l30 75-1 3h-3l-11-28-5-11-4-11-3-8-2-5v-7h-2l-2-7z" fill="#002F3A"/>
<path transform="translate(1365,1495)" d="m0 0h2l1 4v33l-1 50-5-2-2-4 1-3-1-5 3 3 1-54v-16z" fill="#00303C"/>
<path transform="translate(724,839)" d="m0 0h2l3 7 2 1 7 25 3 11 5 11 4 11 5 13 1 6-3-4v-2h-2l-9-21-7-20-5-16z" fill="#044452"/>
<path transform="translate(494,1508)" d="m0 0 3 1 16 24 13 18 11 14 3 7-5-1-4-6-13-18-13-19-11-15-1-4z" fill="#002F39"/>
<path transform="translate(1346,1661)" d="m0 0h7l16 3 8 3-2 4-5-2-9-2h-10l-10 1-5 5-3 9-1 6h-2l-2-2 1-10 6-9 3-3z" fill="#00303C"/>
<path transform="translate(1067,856)" d="m0 0h2l-1 4-8 13-6 11-5 9-3 10-6 18-3 8-1 2-3-1 5-17 7-19 8-17 9-14z" fill="#094850"/>
<path transform="translate(550,1312)" d="m0 0h13l1 1v15h-21l-3-2 5-3v-2l5-1 5 2 1-2-2-4-20-2v-1z" fill="#002F3B"/>
<path transform="translate(1577,1315)" d="m0 0 3 1 8 20 11 27 5 11 2 6-5-2-1-4-3-4-10-26-5-11-2-9-3-3-1-5z" fill="#002F3A"/>
<path transform="translate(1213,993)" d="m0 0 9 5v2l6 2 5 4v2l5 1 11 8 5 1 6-4 5-1v-2l6-1-5 5-12 9-7-3-14-10-20-15z" fill="#063D41"/>
<path transform="translate(953,1656)" d="m0 0h14l-2 2 11 30 5 15v3l-4-1-15-42v-6h-9z" fill="#002F39"/>
<path transform="translate(979,1512)" d="m0 0h3l32 48 2 2v5l-5-5-18-27-10-13-6-9z" fill="#002E39"/>
<path transform="translate(1266,1569)" d="m0 0h1v17l-1 1h-54l1-3h51l1-4-1-5z" fill="#002F3B"/>
<path transform="translate(1414,1315)" d="m0 0h1v13l-4 18-5 13-7 12-8 9h-2v-2h2l2-5 4-5 7-14 4-10 2-10 2-5 1-11z" fill="#002F3A"/>
<path transform="translate(1085,1230)" d="m0 0 10 4 9 6 5 5v3l-5 1-10-7-7-4v-2h-2l-1-4z" fill="#002F3B"/>
<path transform="translate(1028,1502)" d="m0 0h1v44l-2 2-2 3v-20-1-27z" fill="#002B2F"/>
<path transform="translate(1082,1498)" d="m0 0h2v3h5l15 27 4 7v3h-2l-2-3-4-5-11-19v-2l-3-1v-3h-2v-2h-2z" fill="#002C32"/>
<path transform="translate(588,1495)" d="m0 0 5 2 12 34-1 3-3 1-13-38z" fill="#002F3A"/>
<path transform="translate(779,1548)" d="m0 0 7 6 16 24 2 8h-3l-4-6-7-10-6-11-5-7z" fill="#002C32"/>
<path transform="translate(964,1534)" d="m0 0 4 1v25l-1 21-3-1z" fill="#00303C"/>
<path transform="translate(956,1492)" d="m0 0h1l1 8h1v17h-1v15h1v12l-1 1h1v25l-2-4-1-5z" fill="#002E36"/>
<path transform="translate(782,972)" d="m0 0 5 2 5 8 8 9v2l3 1 7 8 2 4 4 2 7 6 6 7 4 4-1 2-15-14-15-15-18-22z" fill="#073D45"/>
<path transform="translate(713,1397)" d="m0 0 6 1 3 2 4 1 2 2-1 1h-26l-4-2 5-2 4-2z" fill="#002F3B"/>
<path transform="translate(891,1398)" d="m0 0h8l-2 2-16 6-11 2h-16l4-2 22-4 5-3z" fill="#002F3B"/>
<path transform="translate(822,1658)" d="m0 0h1v16l-1 1h-41l-1 18h-1v-20l43-1z" fill="#0B3F2F"/>
<path transform="translate(1510,1282)" d="m0 0h3l-1 7-13 35-2 1v-7l2-6h2v-6l2-4h2l1-10h2v-2h2l-1-4z" fill="#002F3A"/>
<path transform="translate(1024,1496)" d="m0 0 6 2v47h-1l-1-26v-16h-3v27h2v5l-3 2z" fill="#00303C"/>
<path transform="translate(1023,1304)" d="m0 0h1v8h39v2l-7 1h-30l-4-1z" fill="#04312F"/>
<path transform="translate(1028,1043)" d="m0 0h2l3 20 1 8 1 10-2 4-1-1-4-26z" fill="#084046"/>
<path transform="translate(1477,1374)" d="m0 0 2 2-8 21-3 7h-24l-1-2h23l2-4 2-10h2l2-12z" fill="#002E38"/>
<path transform="translate(1036,1090)" d="m0 0 3 4v4l35-2 1 3-9 1h-29l-2-4z" fill="#013840"/>
<path transform="translate(855,1239)" d="m0 0 5 1h5l4 5-1 2-11-2-18-2v-1l8-2z" fill="#002F3B"/>
<path transform="translate(1099,826)" d="m0 0m-2 1 2 1-4 6-4 1v2l-8 7-3 1-1 3-8 7-3-1 17-17 9-8z" fill="#053D48"/>
<path transform="translate(399,1568)" d="m0 0h41v3h-41l-4-2z" fill="#00292D"/>
<path transform="translate(1559,1561)" d="m0 0 2 3 6 16v4h-4l-5-11-3-10 4 1z" fill="#002F3A"/>
<path transform="translate(866,901)" d="m0 0 6 1 12 5 16 5v3l-11-2-17-6-4-4z" fill="#0E5663"/>
<path transform="translate(568,1228)" d="m0 0h7v18l-4-1-1-3v-3l-3-5v-2h5l-13-2v-1z" fill="#002F3A"/>
<path transform="translate(965,1507)" d="m0 0h3v28l-2 3v-4h-2v-16z" fill="#002B2F"/>
<path transform="translate(840,889)" d="m0 0 24 10 3 2 4 4-5-1-14-5-7-4-5-2z" fill="#054650"/>
<path transform="translate(1336,1243)" d="m0 0h6l1 5-1 2 2 1-10-1-10-2 1-3z" fill="#002F3B"/>
<path transform="translate(1121,1087)" d="m0 0m-5 1h5l-2 2-11 3-9 1v2l-8 1h-13v-2l30-5z" fill="#0A3F49"/>
<path transform="translate(1592,1408)" d="m0 0h28l4 3h-38l1-2z" fill="#002B30"/>
<path transform="translate(1354,447)" d="m0 0h2v36l-1-3h-2l-1-26z" fill="#024A1C"/>
<path transform="translate(1043,900)" d="m0 0 1 4-1 8-5 16-2 3-3-1 5-17 4-12z" fill="#084C55"/>
<path transform="translate(1175,1069)" d="m0 0m-3 1 5 1-1 2-26 10-3-1 7-2 2-4 11-4z" fill="#0B5463"/>
<path transform="translate(953,1656)" d="m0 0h14l-2 2 6 16-1 4-2 1-6-16v-6h-9z" fill="#002D34"/>
<path transform="translate(491,1522)" d="m0 0h1v65h-12l1-4 10 3z" fill="#05541A"/>
<path transform="translate(738,883)" d="m0 0 2 2 7 17 4 5 2 7 3 6-1 4-2-6h-2l-9-21-4-11z" fill="#076376"/>
<path transform="translate(1288,1237)" d="m0 0 4 1 1 2 4 1 1 6-8 3v-4l-4-2 2-4z" fill="#00303C"/>
<path transform="translate(1266,1569)" d="m0 0h1v17l-1 1h-26l1-2h11l9-1h3l1-4-1-5z" fill="#002E33"/>
<path transform="translate(788,1288)" d="m0 0 2 2-4 13-1 4v21l-2 1-1-3v-21l3-9 1-6h2z" fill="#002E37"/>
<path transform="translate(1197,467)" d="m0 0h5v2l-21 14-3-1 6-5 3-3z" fill="#0C6A13"/>
<path transform="translate(1064,1241)" d="m0 0 11 1v3h3l-1 5-7-2v-2h-6l-5-2v-2z" fill="#002F3B"/>
<path transform="translate(1294,982)" d="m0 0 1 2-7 9-12 13-4 3-1-2 5-6h3l1-4 5-6h3l2-5z" fill="#0A4240"/>
<path transform="translate(1186,974)" d="m0 0 5 2 8 4 5 5 9 8-1 2-12-9-14-10z" fill="#074549"/>
<path transform="translate(1220,1568)" d="m0 0h46v1l-20 2h-12v-1l-14-1z" fill="#002D33"/>
<path transform="translate(1351,861)" d="m0 0h1l1 8-5 17h-3l1-9 2-6z" fill="#09454C"/>
<path transform="translate(548,1320)" d="m0 0 7 2v3 3h-12l-3-2 5-3v-2z" fill="#002F3B"/>
<path transform="translate(833,1026)" d="m0 0 4 2 11 8 10 6 2 4-5-1-16-12-6-5z" fill="#0D464C"/>
<path transform="translate(724,839)" d="m0 0h2l3 7 2 1 2 7v10h-2l-7-24z" fill="#0C6375"/>
<path transform="translate(494,1508)" d="m0 0 3 1 10 15-1 2-4-2-8-11-1-4z" fill="#002C33"/>
<path transform="translate(1284,726)" d="m0 0h2l-2 4-7 7-6 3-5 4-2-1 5-6 9-6z" fill="#094248"/>
<path transform="translate(529,1557)" d="m0 0h2l8 11 1 4-5-1-4-6-4-5v-2z" fill="#002C32"/>
<path transform="translate(906 1e3)" d="m0 0h1l3 16 2 5v12l-2-1-2-7-2-15z" fill="#02333B"/>
<path transform="translate(1359,817)" d="m0 0h1l1 12-2 10-3 1 1-16z" fill="#083C42"/>
<path transform="translate(1024,981)" d="m0 0 2 3 2 10 3 2-2 4-4 2-1-2z" fill="#115041"/>
<path transform="translate(1082,1498)" d="m0 0h2v3h5l4 7-1 3v-2h-2l-1 2v-2l-3-1v-3h-2v-2h-2z" fill="#001D23"/>
<path transform="translate(559,1316)" d="m0 0h4v7l-4 3 2 2-10-1 5-5h3z" fill="#002B2F"/>
<path transform="translate(647,1380)" d="m0 0 5 3 12 1h17v1l-21 2-9-2-4-3z" fill="#00303C"/>
<path transform="translate(837,1386)" d="m0 0 10 2 10 1v2l-11 1-5-1v-2h-5z" fill="#002F3B"/>
<path transform="translate(973,1692)" d="m0 0h4l4 11v3l-4-1-4-11z" fill="#002D36"/>
<path transform="translate(1087,1232)" d="m0 0 7 1 5 3v2h-2l-1 2-7-3-2-2z" fill="#002B30"/>
<path transform="translate(1555,1551)" d="m0 0 2 3 2 4v6l-5-2-2-9z" fill="#002C34"/>
<path transform="translate(782,972)" d="m0 0 5 2 5 8 8 9v2l-4-2-12-15z" fill="#08494D"/>
<path transform="translate(1069,1096)" d="m0 0h5l1 3-9 1h-13v-1l6-2z" fill="#124C3E"/>
<path transform="translate(1357,841)" d="m0 0 2 2-3 14-1-2h-2l1-11z" fill="#084B50"/>
<path transform="translate(941,1340)" d="m0 0 2 2-7 19-3-1 1-4h2l2-10z" fill="#002F3A"/>
<path transform="translate(613,1563)" d="m0 0h3l3 7-1 4-2 1-4-9z" fill="#002B30"/>
<path transform="translate(1348,1230)" d="m0 0 12 3-2 3-7-1-7-2v-2z" fill="#002F3A"/>
<path transform="translate(1303,709)" d="m0 0 2 1-1 2h-2l-2 4-7 6-3-1 5-5z" fill="#0B4145"/>
<path transform="translate(796,1574)" d="m0 0 4 1 2 3 2 8h-3l-4-6-2-4z" fill="#002F3A"/>
<path transform="translate(1310,1507)" d="m0 0h7l4 6v5l-3-1-5-7z" fill="#002B35"/>
<path transform="translate(929,1264)" d="m0 0 3 1 6 13h-3l-2-4v-3h-3l-2-6z" fill="#002F39"/>
<path transform="translate(1320,692)" d="m0 0h2v2h-2v2h-2v2h-2l-2 4-8 7-2-1z" fill="#004E65"/>
<path transform="translate(1339,899)" d="m0 0 4 1-5 12h-3l2-9z" fill="#084446"/>
<path transform="translate(1592,1408)" d="m0 0 19 1v1l-13 1h-12l1-2z" fill="#012F33"/>
<path transform="translate(761,934)" d="m0 0 3 3 5 10v3h2l-1 2-4-4-6-11z" fill="#07505A"/>
<path transform="translate(1237,1673)" d="m0 0 4 2v11l-3-1-1-2z" fill="#002B2F"/>
<path transform="translate(1356,1566)" d="m0 0 5 1 1 8-3 1-4-6z" fill="#00282C"/>
<path transform="translate(830,1242)" d="m0 0 4 1v2l2 1-8 3-3-5z" fill="#002F3A"/>
<path transform="translate(1357,731)" d="m0 0 2 1 1 3v9l-1 5h-1l-1-5z" fill="#053A3E"/>
<path transform="translate(953,1656)" d="m0 0h14l-2 2 2 8-5-3v-6h-9z" fill="#093B37"/>
<path transform="translate(1121,1087)" d="m0 0m-5 1h5l-2 2-11 3h-6l1-2z" fill="#00303C"/>
<path transform="translate(788,1288)" d="m0 0 2 2-4 13-2 4-1-4 3-13h2z" fill="#002F39"/>
<path transform="translate(491,1574)" d="m0 0h1v13h-12l1-4 10 3z" fill="#022F33"/>
<path transform="translate(979,1512)" d="m0 0h3l4 7-2 1-1 2-6-9z" fill="#002F3B"/>
<path transform="translate(1332,678)" d="m0 0 2 1-5 6-3 5h-2v2l-4-1 7-7z" fill="#1C5650"/>
<path transform="translate(1232,857)" d="m0 0h3l-1 3-11 6 2-4h2l2-4z" fill="#043D45"/>
<path transform="translate(871,1245)" d="m0 0 7 1 4 4 5 3-2 1-11-5-3-1z" fill="#002F3A"/>
<path transform="translate(1047,893)" d="m0 0h1l-1 8-3 5-1-2 1-8z" fill="#043B42"/>
<path transform="translate(1017,1566)" d="m0 0 4 5 3 6v2l-4-2-4-7z" fill="#002B31"/>
<path transform="translate(1529,1507)" d="m0 0h2l3 9 1 4-2 2-2-6-2-1z" fill="#043938"/>
<path transform="translate(1078,1506)" d="m0 0 3 1 1 4-2 1-1 17h-1z" fill="#002B2F"/>
<path transform="translate(1330,1401)" d="m0 0h11v2l-14 1-2-2z" fill="#002F3B"/>
<path transform="translate(1358,1397)" d="m0 0h4v2l-11 3-4-1 2-2z" fill="#002E39"/>
<path transform="translate(640,1228)" d="m0 0h5v6l-3 1-3-3z" fill="#00303C"/>
<path transform="translate(429,1568)" d="m0 0h11v3h-11z" fill="#002B2F"/>
<path transform="translate(860,1045)" d="m0 0 9 6 1 3-5-2-7-5z" fill="#095055"/>
<path transform="translate(1266,740)" d="m0 0m-2 1 2 1-3 5-9 2 4-4z" fill="#045767"/>
<path transform="translate(1366,1575)" d="m0 0h1v7l-5-2-2-4z" fill="#002D34"/>
<path transform="translate(975,1504)" d="m0 0 5 5 1 3-5 1-1-6z" fill="#002C33"/>
<path transform="translate(732,859)" d="m0 0h2l3 9-1 4-5-8h2z" fill="#02333C"/>
<path transform="translate(973,1511)" d="m0 0 3 3v7h-2l-1 2z" fill="#02333A"/>
<path transform="translate(773,958)" d="m0 0 3 1 7 12-4-2-6-9z" fill="#17525A"/>
<path transform="translate(1534,1505)" d="m0 0 5 1v8h-2z" fill="#002D35"/>
<path transform="translate(1154,1077)" d="m0 0m-3 1h3v2l-7 3h-5l3-3z" fill="#00303C"/>
<path transform="translate(1276 1e3)" d="m0 0h3l-2 4-5 4-1-2z" fill="#134C3C"/>
<path transform="translate(1344,887)" d="m0 0 2 2-1 5-2 4-2-1 2-9z" fill="#0C4F5D"/>
</svg>
